<?xml version="1.0" encoding="UTF-8"?><!DOCTYPE svg PUBLIC "-//W3C//DTD SVG 1.1//EN" "http://www.w3.org/Graphics/SVG/1.1/DTD/svg11.dtd"><svg xmlns="http://www.w3.org/2000/svg"><defs><pattern id="intro-bg-a" data-name="Stripes" width="50" height="50" patternTransform="translate(175 548)" patternUnits="userSpaceOnUse" viewBox="0 0 50 50"><path fill="none" d="M0 0h50v50H0z"/><path fill="none" stroke="#3cb" stroke-miterlimit="10" d="M49.75 100.25l50.5-50.5M39.75 100.25l50.5-50.5M29.75 100.25l50.5-50.5M19.75 100.25l50.5-50.5M9.75 100.25l50.5-50.5M4.75 100.25l50.5-50.5M14.75 100.25l50.5-50.5M24.75 100.25l50.5-50.5M34.75 100.25l50.5-50.5M44.75 100.25l50.5-50.5M-.25 100.25l50.5-50.5M9.75 100.25l50.5-50.5M19.75 100.25l50.5-50.5M29.75 100.25l50.5-50.5M39.75 100.25l50.5-50.5M-10.25 100.25l50.5-50.5M-20.25 100.25l50.5-50.5M-30.25 100.25l50.5-50.5M-40.25 100.25l50.5-50.5M-45.25 100.25l50.5-50.5M-35.25 100.25l50.5-50.5M-25.25 100.25l50.5-50.5M-15.25 100.25l50.5-50.5M-5.25 100.25l50.5-50.5M4.75 100.25l50.5-50.5M14.75 100.25l50.5-50.5M24.75 100.25l50.5-50.5M34.75 100.25l50.5-50.5M44.75 100.25l50.5-50.5M-50.25 100.25l50.5-50.5M-40.25 100.25l50.5-50.5M-30.25 100.25l50.5-50.5M-20.25 100.25l50.5-50.5M-10.25 100.25l50.5-50.5M-45.25 100.25l50.5-50.5M-35.25 100.25l50.5-50.5M-25.25 100.25l50.5-50.5M-15.25 100.25l50.5-50.5M-5.25 100.25l50.5-50.5"/><path fill="#fff" d="M49.75.25h50v50h-50z"/><path fill="none" stroke="#3cb" stroke-miterlimit="10" d="M49.75 50.25l50.5-50.5M39.75 50.25l50.5-50.5M29.75 50.25l50.5-50.5M19.75 50.25l50.5-50.5M9.75 50.25l50.5-50.5M4.75 50.25l50.5-50.5M14.75 50.25l50.5-50.5M24.75 50.25l50.5-50.5M34.75 50.25l50.5-50.5M44.75 50.25l50.5-50.5"/><path fill="#fff" d="M-.25.25h50v50h-50z"/><path fill="none" stroke="#3cb" stroke-miterlimit="10" d="M-.25 50.25l50.5-50.5M9.75 50.25l50.5-50.5M19.75 50.25l50.5-50.5M29.75 50.25l50.5-50.5M39.75 50.25l50.5-50.5M-10.25 50.25l50.5-50.5M-20.25 50.25l50.5-50.5M-30.25 50.25l50.5-50.5M-40.25 50.25l50.5-50.5M-45.25 50.25L5.25-.25M-35.25 50.25l50.5-50.5M-25.25 50.25l50.5-50.5M-15.25 50.25l50.5-50.5M-5.25 50.25l50.5-50.5M4.75 50.25l50.5-50.5M14.75 50.25l50.5-50.5M24.75 50.25l50.5-50.5M34.75 50.25l50.5-50.5M44.75 50.25l50.5-50.5M-50.25 50.25L.25-.25M-40.25 50.25l50.5-50.5M-30.25 50.25l50.5-50.5M-20.25 50.25l50.5-50.5M-10.25 50.25l50.5-50.5M-45.25 50.25L5.25-.25M-35.25 50.25l50.5-50.5M-25.25 50.25l50.5-50.5M-15.25 50.25l50.5-50.5M-5.25 50.25l50.5-50.5"/><path fill="#fff" d="M49.75-49.75h50v50h-50z"/><path fill="none" stroke="#3cb" stroke-miterlimit="10" d="M49.75.25l50.5-50.5M39.75.25l50.5-50.5M29.75.25l50.5-50.5M19.75.25l50.5-50.5M9.75.25l50.5-50.5M4.75.25l50.5-50.5M14.75.25l50.5-50.5M24.75.25l50.5-50.5M34.75.25l50.5-50.5M44.75.25l50.5-50.5"/><path fill="#fff" d="M-.25-49.75h50v50h-50z"/><path fill="none" stroke="#3cb" stroke-miterlimit="10" d="M-.25.25l50.5-50.5M9.75.25l50.5-50.5M19.75.25l50.5-50.5M29.75.25l50.5-50.5M39.75.25l50.5-50.5M-10.25.25l50.5-50.5M-20.25.25l50.5-50.5M-30.25.25l50.5-50.5M-40.25.25l50.5-50.5M-45.25.25l50.5-50.5M-35.25.25l50.5-50.5M-25.25.25l50.5-50.5M-15.25.25l50.5-50.5M-5.25.25l50.5-50.5M4.75.25l50.5-50.5M14.75.25l50.5-50.5M24.75.25l50.5-50.5M34.75.25l50.5-50.5M44.75.25l50.5-50.5M-50.25.25l50.5-50.5M-40.25.25l50.5-50.5M-30.25.25l50.5-50.5M-20.25.25l50.5-50.5M-10.25.25l50.5-50.5M-45.25.25l50.5-50.5M-35.25.25l50.5-50.5M-25.25.25l50.5-50.5M-15.25.25l50.5-50.5M-5.25.25l50.5-50.5"/></pattern><pattern id="intro-bg-b" data-name="Stripes" width="50" height="50" patternTransform="translate(225 548)" patternUnits="userSpaceOnUse" viewBox="0 0 50 50"><path fill="none" d="M0 0h50v50H0z"/><path fill="none" stroke="#3cb" stroke-miterlimit="10" d="M49.75 100.25l50.5-50.5M39.75 100.25l50.5-50.5M29.75 100.25l50.5-50.5M19.75 100.25l50.5-50.5M9.75 100.25l50.5-50.5M4.75 100.25l50.5-50.5M14.75 100.25l50.5-50.5M24.75 100.25l50.5-50.5M34.75 100.25l50.5-50.5M44.75 100.25l50.5-50.5M-.25 100.25l50.5-50.5M9.75 100.25l50.5-50.5M19.75 100.25l50.5-50.5M29.75 100.25l50.5-50.5M39.75 100.25l50.5-50.5M-10.25 100.25l50.5-50.5M-20.25 100.25l50.5-50.5M-30.25 100.25l50.5-50.5M-40.25 100.25l50.5-50.5M-45.25 100.25l50.5-50.5M-35.25 100.25l50.5-50.5M-25.25 100.25l50.5-50.5M-15.25 100.25l50.5-50.5M-5.25 100.25l50.5-50.5M4.75 100.25l50.5-50.5M14.75 100.25l50.5-50.5M24.75 100.25l50.5-50.5M34.75 100.25l50.5-50.5M44.75 100.25l50.5-50.5M-50.25 100.25l50.5-50.5M-40.25 100.25l50.5-50.5M-30.25 100.25l50.5-50.5M-20.25 100.25l50.5-50.5M-10.25 100.25l50.5-50.5M-45.25 100.25l50.5-50.5M-35.25 100.25l50.5-50.5M-25.25 100.25l50.5-50.5M-15.25 100.25l50.5-50.5M-5.25 100.25l50.5-50.5"/><path fill="#fff" d="M49.75.25h50v50h-50z"/><path fill="none" stroke="#3cb" stroke-miterlimit="10" d="M49.75 50.25l50.5-50.5M39.75 50.25l50.5-50.5M29.75 50.25l50.5-50.5M19.75 50.25l50.5-50.5M9.75 50.25l50.5-50.5M4.75 50.25l50.5-50.5M14.75 50.25l50.5-50.5M24.75 50.25l50.5-50.5M34.75 50.25l50.5-50.5M44.75 50.25l50.5-50.5"/><path fill="#fff" d="M-.25.25h50v50h-50z"/><path fill="none" stroke="#3cb" stroke-miterlimit="10" d="M-.25 50.25l50.5-50.5M9.75 50.25l50.5-50.5M19.75 50.25l50.5-50.5M29.75 50.25l50.5-50.5M39.75 50.25l50.5-50.5M-10.25 50.25l50.5-50.5M-20.25 50.25l50.5-50.5M-30.25 50.25l50.5-50.5M-40.25 50.25l50.5-50.5M-45.25 50.25L5.25-.25M-35.25 50.25l50.5-50.5M-25.25 50.25l50.5-50.5M-15.25 50.25l50.5-50.5M-5.25 50.25l50.5-50.5M4.75 50.25l50.5-50.5M14.75 50.25l50.5-50.5M24.75 50.25l50.5-50.5M34.75 50.25l50.5-50.5M44.75 50.25l50.5-50.5M-50.25 50.25L.25-.25M-40.25 50.25l50.5-50.5M-30.25 50.25l50.5-50.5M-20.25 50.25l50.5-50.5M-10.25 50.25l50.5-50.5M-45.25 50.25L5.25-.25M-35.25 50.25l50.5-50.5M-25.25 50.25l50.5-50.5M-15.25 50.25l50.5-50.5M-5.25 50.25l50.5-50.5"/><path fill="#fff" d="M49.75-49.75h50v50h-50z"/><path fill="none" stroke="#3cb" stroke-miterlimit="10" d="M49.75.25l50.5-50.5M39.75.25l50.5-50.5M29.75.25l50.5-50.5M19.75.25l50.5-50.5M9.75.25l50.5-50.5M4.75.25l50.5-50.5M14.75.25l50.5-50.5M24.75.25l50.5-50.5M34.75.25l50.5-50.5M44.75.25l50.5-50.5"/><path fill="#fff" d="M-.25-49.75h50v50h-50z"/><path fill="none" stroke="#3cb" stroke-miterlimit="10" d="M-.25.25l50.5-50.5M9.75.25l50.5-50.5M19.75.25l50.5-50.5M29.75.25l50.5-50.5M39.75.25l50.5-50.5M-10.25.25l50.5-50.5M-20.25.25l50.5-50.5M-30.25.25l50.5-50.5M-40.25.25l50.5-50.5M-45.25.25l50.5-50.5M-35.25.25l50.5-50.5M-25.25.25l50.5-50.5M-15.25.25l50.5-50.5M-5.25.25l50.5-50.5M4.75.25l50.5-50.5M14.75.25l50.5-50.5M24.75.25l50.5-50.5M34.75.25l50.5-50.5M44.75.25l50.5-50.5M-50.25.25l50.5-50.5M-40.25.25l50.5-50.5M-30.25.25l50.5-50.5M-20.25.25l50.5-50.5M-10.25.25l50.5-50.5M-45.25.25l50.5-50.5M-35.25.25l50.5-50.5M-25.25.25l50.5-50.5M-15.25.25l50.5-50.5M-5.25.25l50.5-50.5"/></pattern><pattern id="intro-bg-c" data-name="Stripes" width="50" height="50" patternTransform="translate(175 448)" patternUnits="userSpaceOnUse" viewBox="0 0 50 50"><path fill="none" d="M0 0h50v50H0z"/><path fill="none" stroke="#3cb" stroke-miterlimit="10" d="M49.75 100.25l50.5-50.5M39.75 100.25l50.5-50.5M29.75 100.25l50.5-50.5M19.75 100.25l50.5-50.5M9.75 100.25l50.5-50.5M4.75 100.25l50.5-50.5M14.75 100.25l50.5-50.5M24.75 100.25l50.5-50.5M34.75 100.25l50.5-50.5M44.75 100.25l50.5-50.5M-.25 100.25l50.5-50.5M9.75 100.25l50.5-50.5M19.75 100.25l50.5-50.5M29.75 100.25l50.5-50.5M39.75 100.25l50.5-50.5M-10.25 100.25l50.5-50.5M-20.25 100.25l50.5-50.5M-30.25 100.25l50.5-50.5M-40.25 100.25l50.5-50.5M-45.25 100.25l50.5-50.5M-35.25 100.25l50.5-50.5M-25.25 100.25l50.5-50.5M-15.25 100.25l50.5-50.5M-5.25 100.25l50.5-50.5M4.75 100.25l50.5-50.5M14.75 100.25l50.5-50.5M24.75 100.25l50.5-50.5M34.75 100.25l50.5-50.5M44.75 100.25l50.5-50.5M-50.25 100.25l50.5-50.5M-40.25 100.25l50.5-50.5M-30.25 100.25l50.5-50.5M-20.25 100.25l50.5-50.5M-10.25 100.25l50.5-50.5M-45.25 100.25l50.5-50.5M-35.25 100.25l50.5-50.5M-25.25 100.25l50.5-50.5M-15.25 100.25l50.5-50.5M-5.25 100.25l50.5-50.5"/><path fill="#fff" d="M49.75.25h50v50h-50z"/><path fill="none" stroke="#3cb" stroke-miterlimit="10" d="M49.75 50.25l50.5-50.5M39.75 50.25l50.5-50.5M29.75 50.25l50.5-50.5M19.75 50.25l50.5-50.5M9.75 50.25l50.5-50.5M4.75 50.25l50.5-50.5M14.75 50.25l50.5-50.5M24.75 50.25l50.5-50.5M34.75 50.25l50.5-50.5M44.75 50.25l50.5-50.5"/><path fill="#fff" d="M-.25.25h50v50h-50z"/><path fill="none" stroke="#3cb" stroke-miterlimit="10" d="M-.25 50.25l50.5-50.5M9.75 50.25l50.5-50.5M19.75 50.25l50.5-50.5M29.75 50.25l50.5-50.5M39.75 50.25l50.5-50.5M-10.25 50.25l50.5-50.5M-20.25 50.25l50.5-50.5M-30.25 50.25l50.5-50.5M-40.25 50.25l50.5-50.5M-45.25 50.25L5.25-.25M-35.25 50.25l50.5-50.5M-25.25 50.25l50.5-50.5M-15.25 50.25l50.5-50.5M-5.25 50.25l50.5-50.5M4.75 50.25l50.5-50.5M14.75 50.25l50.5-50.5M24.75 50.25l50.5-50.5M34.75 50.25l50.5-50.5M44.75 50.25l50.5-50.5M-50.25 50.25L.25-.25M-40.25 50.25l50.5-50.5M-30.25 50.25l50.5-50.5M-20.25 50.25l50.5-50.5M-10.25 50.25l50.5-50.5M-45.25 50.25L5.25-.25M-35.25 50.25l50.5-50.5M-25.25 50.25l50.5-50.5M-15.25 50.25l50.5-50.5M-5.25 50.25l50.5-50.5"/><path fill="#fff" d="M49.75-49.75h50v50h-50z"/><path fill="none" stroke="#3cb" stroke-miterlimit="10" d="M49.75.25l50.5-50.5M39.75.25l50.5-50.5M29.75.25l50.5-50.5M19.75.25l50.5-50.5M9.75.25l50.5-50.5M4.75.25l50.5-50.5M14.75.25l50.5-50.5M24.75.25l50.5-50.5M34.75.25l50.5-50.5M44.75.25l50.5-50.5"/><path fill="#fff" d="M-.25-49.75h50v50h-50z"/><path fill="none" stroke="#3cb" stroke-miterlimit="10" d="M-.25.25l50.5-50.5M9.75.25l50.5-50.5M19.75.25l50.5-50.5M29.75.25l50.5-50.5M39.75.25l50.5-50.5M-10.25.25l50.5-50.5M-20.25.25l50.5-50.5M-30.25.25l50.5-50.5M-40.25.25l50.5-50.5M-45.25.25l50.5-50.5M-35.25.25l50.5-50.5M-25.25.25l50.5-50.5M-15.25.25l50.5-50.5M-5.25.25l50.5-50.5M4.75.25l50.5-50.5M14.75.25l50.5-50.5M24.75.25l50.5-50.5M34.75.25l50.5-50.5M44.75.25l50.5-50.5M-50.25.25l50.5-50.5M-40.25.25l50.5-50.5M-30.25.25l50.5-50.5M-20.25.25l50.5-50.5M-10.25.25l50.5-50.5M-45.25.25l50.5-50.5M-35.25.25l50.5-50.5M-25.25.25l50.5-50.5M-15.25.25l50.5-50.5M-5.25.25l50.5-50.5"/></pattern><pattern id="intro-bg-d" data-name="Stripes" width="50" height="50" patternTransform="translate(-25 48)" patternUnits="userSpaceOnUse" viewBox="0 0 50 50"><path fill="none" d="M0 0h50v50H0z"/><path fill="none" stroke="#3cb" stroke-miterlimit="10" d="M49.75 100.25l50.5-50.5M39.75 100.25l50.5-50.5M29.75 100.25l50.5-50.5M19.75 100.25l50.5-50.5M9.75 100.25l50.5-50.5M4.75 100.25l50.5-50.5M14.75 100.25l50.5-50.5M24.75 100.25l50.5-50.5M34.75 100.25l50.5-50.5M44.75 100.25l50.5-50.5M-.25 100.25l50.5-50.5M9.75 100.25l50.5-50.5M19.75 100.25l50.5-50.5M29.75 100.25l50.5-50.5M39.75 100.25l50.5-50.5M-10.25 100.25l50.5-50.5M-20.25 100.25l50.5-50.5M-30.25 100.25l50.5-50.5M-40.25 100.25l50.5-50.5M-45.25 100.25l50.5-50.5M-35.25 100.25l50.5-50.5M-25.25 100.25l50.5-50.5M-15.25 100.25l50.5-50.5M-5.25 100.25l50.5-50.5M4.75 100.25l50.5-50.5M14.75 100.25l50.5-50.5M24.75 100.25l50.5-50.5M34.75 100.25l50.5-50.5M44.75 100.25l50.5-50.5M-50.25 100.25l50.5-50.5M-40.25 100.25l50.5-50.5M-30.25 100.25l50.5-50.5M-20.25 100.25l50.5-50.5M-10.25 100.25l50.5-50.5M-45.25 100.25l50.5-50.5M-35.25 100.25l50.5-50.5M-25.25 100.25l50.5-50.5M-15.25 100.25l50.5-50.5M-5.25 100.25l50.5-50.5"/><path fill="#fff" d="M49.75.25h50v50h-50z"/><path fill="none" stroke="#3cb" stroke-miterlimit="10" d="M49.75 50.25l50.5-50.5M39.75 50.25l50.5-50.5M29.75 50.25l50.5-50.5M19.75 50.25l50.5-50.5M9.75 50.25l50.5-50.5M4.75 50.25l50.5-50.5M14.75 50.25l50.5-50.5M24.75 50.25l50.5-50.5M34.75 50.25l50.5-50.5M44.75 50.25l50.5-50.5"/><path fill="#fff" d="M-.25.25h50v50h-50z"/><path fill="none" stroke="#3cb" stroke-miterlimit="10" d="M-.25 50.25l50.5-50.5M9.75 50.25l50.5-50.5M19.75 50.25l50.5-50.5M29.75 50.25l50.5-50.5M39.75 50.25l50.5-50.5M-10.25 50.25l50.5-50.5M-20.25 50.25l50.5-50.5M-30.25 50.25l50.5-50.5M-40.25 50.25l50.5-50.5M-45.25 50.25L5.25-.25M-35.25 50.25l50.5-50.5M-25.25 50.25l50.5-50.5M-15.25 50.25l50.5-50.5M-5.25 50.25l50.5-50.5M4.75 50.25l50.5-50.5M14.75 50.25l50.5-50.5M24.75 50.25l50.5-50.5M34.75 50.25l50.5-50.5M44.75 50.25l50.5-50.5M-50.25 50.25L.25-.25M-40.25 50.25l50.5-50.5M-30.25 50.25l50.5-50.5M-20.25 50.25l50.5-50.5M-10.25 50.25l50.5-50.5M-45.25 50.25L5.25-.25M-35.25 50.25l50.5-50.5M-25.25 50.25l50.5-50.5M-15.25 50.25l50.5-50.5M-5.25 50.25l50.5-50.5"/><path fill="#fff" d="M49.75-49.75h50v50h-50z"/><path fill="none" stroke="#3cb" stroke-miterlimit="10" d="M49.75.25l50.5-50.5M39.75.25l50.5-50.5M29.75.25l50.5-50.5M19.75.25l50.5-50.5M9.75.25l50.5-50.5M4.75.25l50.5-50.5M14.75.25l50.5-50.5M24.75.25l50.5-50.5M34.75.25l50.5-50.5M44.75.25l50.5-50.5"/><path fill="#fff" d="M-.25-49.75h50v50h-50z"/><path fill="none" stroke="#3cb" stroke-miterlimit="10" d="M-.25.25l50.5-50.5M9.75.25l50.5-50.5M19.75.25l50.5-50.5M29.75.25l50.5-50.5M39.75.25l50.5-50.5M-10.25.25l50.5-50.5M-20.25.25l50.5-50.5M-30.25.25l50.5-50.5M-40.25.25l50.5-50.5M-45.25.25l50.5-50.5M-35.25.25l50.5-50.5M-25.25.25l50.5-50.5M-15.25.25l50.5-50.5M-5.25.25l50.5-50.5M4.75.25l50.5-50.5M14.75.25l50.5-50.5M24.75.25l50.5-50.5M34.75.25l50.5-50.5M44.75.25l50.5-50.5M-50.25.25l50.5-50.5M-40.25.25l50.5-50.5M-30.25.25l50.5-50.5M-20.25.25l50.5-50.5M-10.25.25l50.5-50.5M-45.25.25l50.5-50.5M-35.25.25l50.5-50.5M-25.25.25l50.5-50.5M-15.25.25l50.5-50.5M-5.25.25l50.5-50.5"/></pattern><pattern id="intro-bg-e" data-name="Stripes" width="50" height="50" patternTransform="translate(75 538)" patternUnits="userSpaceOnUse" viewBox="0 0 50 50"><path fill="none" d="M0 0h50v50H0z"/><path fill="none" stroke="#3cb" stroke-miterlimit="10" d="M49.75 100.25l50.5-50.5M39.75 100.25l50.5-50.5M29.75 100.25l50.5-50.5M19.75 100.25l50.5-50.5M9.75 100.25l50.5-50.5M4.75 100.25l50.5-50.5M14.75 100.25l50.5-50.5M24.75 100.25l50.5-50.5M34.75 100.25l50.5-50.5M44.75 100.25l50.5-50.5M-.25 100.25l50.5-50.5M9.75 100.25l50.5-50.5M19.75 100.25l50.5-50.5M29.75 100.25l50.5-50.5M39.75 100.25l50.5-50.5M-10.25 100.25l50.5-50.5M-20.25 100.25l50.5-50.5M-30.25 100.25l50.5-50.5M-40.25 100.25l50.5-50.5M-45.25 100.25l50.5-50.5M-35.25 100.25l50.5-50.5M-25.25 100.25l50.5-50.5M-15.25 100.25l50.5-50.5M-5.25 100.25l50.5-50.5M4.75 100.25l50.5-50.5M14.75 100.25l50.5-50.5M24.75 100.25l50.5-50.5M34.75 100.25l50.5-50.5M44.75 100.25l50.5-50.5M-50.25 100.25l50.5-50.5M-40.25 100.25l50.5-50.5M-30.25 100.25l50.5-50.5M-20.25 100.25l50.5-50.5M-10.25 100.25l50.5-50.5M-45.25 100.25l50.5-50.5M-35.25 100.25l50.5-50.5M-25.25 100.25l50.5-50.5M-15.25 100.25l50.5-50.5M-5.25 100.25l50.5-50.5"/><path fill="#fff" d="M49.75.25h50v50h-50z"/><path fill="none" stroke="#3cb" stroke-miterlimit="10" d="M49.75 50.25l50.5-50.5M39.75 50.25l50.5-50.5M29.75 50.25l50.5-50.5M19.75 50.25l50.5-50.5M9.75 50.25l50.5-50.5M4.75 50.25l50.5-50.5M14.75 50.25l50.5-50.5M24.75 50.25l50.5-50.5M34.75 50.25l50.5-50.5M44.75 50.25l50.5-50.5"/><path fill="#fff" d="M-.25.25h50v50h-50z"/><path fill="none" stroke="#3cb" stroke-miterlimit="10" d="M-.25 50.25l50.5-50.5M9.75 50.25l50.5-50.5M19.75 50.25l50.5-50.5M29.75 50.25l50.5-50.5M39.75 50.25l50.5-50.5M-10.25 50.25l50.5-50.5M-20.25 50.25l50.5-50.5M-30.25 50.25l50.5-50.5M-40.25 50.25l50.5-50.5M-45.25 50.25L5.25-.25M-35.25 50.25l50.5-50.5M-25.25 50.25l50.5-50.5M-15.25 50.25l50.5-50.5M-5.25 50.25l50.5-50.5M4.75 50.25l50.5-50.5M14.75 50.25l50.5-50.5M24.75 50.25l50.5-50.5M34.75 50.25l50.5-50.5M44.75 50.25l50.5-50.5M-50.25 50.25L.25-.25M-40.25 50.25l50.5-50.5M-30.25 50.25l50.5-50.5M-20.25 50.25l50.5-50.5M-10.25 50.25l50.5-50.5M-45.25 50.25L5.25-.25M-35.25 50.25l50.5-50.5M-25.25 50.25l50.5-50.5M-15.25 50.25l50.5-50.5M-5.25 50.25l50.5-50.5"/><path fill="#fff" d="M49.75-49.75h50v50h-50z"/><path fill="none" stroke="#3cb" stroke-miterlimit="10" d="M49.75.25l50.5-50.5M39.75.25l50.5-50.5M29.75.25l50.5-50.5M19.75.25l50.5-50.5M9.75.25l50.5-50.5M4.75.25l50.5-50.5M14.75.25l50.5-50.5M24.75.25l50.5-50.5M34.75.25l50.5-50.5M44.75.25l50.5-50.5"/><path fill="#fff" d="M-.25-49.75h50v50h-50z"/><path fill="none" stroke="#3cb" stroke-miterlimit="10" d="M-.25.25l50.5-50.5M9.75.25l50.5-50.5M19.75.25l50.5-50.5M29.75.25l50.5-50.5M39.75.25l50.5-50.5M-10.25.25l50.5-50.5M-20.25.25l50.5-50.5M-30.25.25l50.5-50.5M-40.25.25l50.5-50.5M-45.25.25l50.5-50.5M-35.25.25l50.5-50.5M-25.25.25l50.5-50.5M-15.25.25l50.5-50.5M-5.25.25l50.5-50.5M4.75.25l50.5-50.5M14.75.25l50.5-50.5M24.75.25l50.5-50.5M34.75.25l50.5-50.5M44.75.25l50.5-50.5M-50.25.25l50.5-50.5M-40.25.25l50.5-50.5M-30.25.25l50.5-50.5M-20.25.25l50.5-50.5M-10.25.25l50.5-50.5M-45.25.25l50.5-50.5M-35.25.25l50.5-50.5M-25.25.25l50.5-50.5M-15.25.25l50.5-50.5M-5.25.25l50.5-50.5"/></pattern><pattern id="intro-bg-f" data-name="Stripes" width="50" height="50" patternTransform="translate(225 348)" patternUnits="userSpaceOnUse" viewBox="0 0 50 50"><path fill="none" d="M0 0h50v50H0z"/><path fill="none" stroke="#3cb" stroke-miterlimit="10" d="M49.75 100.25l50.5-50.5M39.75 100.25l50.5-50.5M29.75 100.25l50.5-50.5M19.75 100.25l50.5-50.5M9.75 100.25l50.5-50.5M4.75 100.25l50.5-50.5M14.75 100.25l50.5-50.5M24.75 100.25l50.5-50.5M34.75 100.25l50.5-50.5M44.75 100.25l50.5-50.5M-.25 100.25l50.5-50.5M9.75 100.25l50.5-50.5M19.75 100.25l50.5-50.5M29.75 100.25l50.5-50.5M39.75 100.25l50.5-50.5M-10.25 100.25l50.5-50.5M-20.25 100.25l50.5-50.5M-30.25 100.25l50.5-50.5M-40.25 100.25l50.5-50.5M-45.25 100.25l50.5-50.5M-35.25 100.25l50.5-50.5M-25.25 100.25l50.5-50.5M-15.25 100.25l50.5-50.5M-5.25 100.25l50.5-50.5M4.75 100.25l50.5-50.5M14.75 100.25l50.5-50.5M24.75 100.25l50.5-50.5M34.75 100.25l50.5-50.5M44.75 100.25l50.5-50.5M-50.25 100.25l50.5-50.5M-40.25 100.25l50.5-50.5M-30.25 100.25l50.5-50.5M-20.25 100.25l50.5-50.5M-10.25 100.25l50.5-50.5M-45.25 100.25l50.5-50.5M-35.25 100.25l50.5-50.5M-25.25 100.25l50.5-50.5M-15.25 100.25l50.5-50.5M-5.25 100.25l50.5-50.5"/><path fill="#fff" d="M49.75.25h50v50h-50z"/><path fill="none" stroke="#3cb" stroke-miterlimit="10" d="M49.75 50.25l50.5-50.5M39.75 50.25l50.5-50.5M29.75 50.25l50.5-50.5M19.75 50.25l50.5-50.5M9.75 50.25l50.5-50.5M4.75 50.25l50.5-50.5M14.75 50.25l50.5-50.5M24.75 50.25l50.5-50.5M34.75 50.25l50.5-50.5M44.75 50.25l50.5-50.5"/><path fill="#fff" d="M-.25.25h50v50h-50z"/><path fill="none" stroke="#3cb" stroke-miterlimit="10" d="M-.25 50.25l50.5-50.5M9.75 50.25l50.5-50.5M19.75 50.25l50.5-50.5M29.75 50.25l50.5-50.5M39.75 50.25l50.5-50.5M-10.25 50.25l50.5-50.5M-20.25 50.25l50.5-50.5M-30.25 50.25l50.5-50.5M-40.25 50.25l50.5-50.5M-45.25 50.25L5.25-.25M-35.25 50.25l50.5-50.5M-25.25 50.25l50.5-50.5M-15.25 50.25l50.5-50.5M-5.25 50.25l50.5-50.5M4.75 50.25l50.5-50.5M14.75 50.25l50.5-50.5M24.75 50.25l50.5-50.5M34.75 50.25l50.5-50.5M44.75 50.25l50.5-50.5M-50.25 50.25L.25-.25M-40.25 50.25l50.5-50.5M-30.25 50.25l50.5-50.5M-20.25 50.25l50.5-50.5M-10.25 50.25l50.5-50.5M-45.25 50.25L5.25-.25M-35.25 50.25l50.5-50.5M-25.25 50.25l50.5-50.5M-15.25 50.25l50.5-50.5M-5.25 50.25l50.5-50.5"/><path fill="#fff" d="M49.75-49.75h50v50h-50z"/><path fill="none" stroke="#3cb" stroke-miterlimit="10" d="M49.75.25l50.5-50.5M39.75.25l50.5-50.5M29.75.25l50.5-50.5M19.75.25l50.5-50.5M9.75.25l50.5-50.5M4.75.25l50.5-50.5M14.75.25l50.5-50.5M24.75.25l50.5-50.5M34.75.25l50.5-50.5M44.75.25l50.5-50.5"/><path fill="#fff" d="M-.25-49.75h50v50h-50z"/><path fill="none" stroke="#3cb" stroke-miterlimit="10" d="M-.25.25l50.5-50.5M9.75.25l50.5-50.5M19.75.25l50.5-50.5M29.75.25l50.5-50.5M39.75.25l50.5-50.5M-10.25.25l50.5-50.5M-20.25.25l50.5-50.5M-30.25.25l50.5-50.5M-40.25.25l50.5-50.5M-45.25.25l50.5-50.5M-35.25.25l50.5-50.5M-25.25.25l50.5-50.5M-15.25.25l50.5-50.5M-5.25.25l50.5-50.5M4.75.25l50.5-50.5M14.75.25l50.5-50.5M24.75.25l50.5-50.5M34.75.25l50.5-50.5M44.75.25l50.5-50.5M-50.25.25l50.5-50.5M-40.25.25l50.5-50.5M-30.25.25l50.5-50.5M-20.25.25l50.5-50.5M-10.25.25l50.5-50.5M-45.25.25l50.5-50.5M-35.25.25l50.5-50.5M-25.25.25l50.5-50.5M-15.25.25l50.5-50.5M-5.25.25l50.5-50.5"/></pattern><pattern id="intro-bg-g" data-name="Stripes" width="50" height="50" patternTransform="translate(-175 598)" patternUnits="userSpaceOnUse" viewBox="0 0 50 50"><path fill="none" d="M0 0h50v50H0z"/><path fill="none" stroke="#3cb" stroke-miterlimit="10" d="M49.75 100.25l50.5-50.5M39.75 100.25l50.5-50.5M29.75 100.25l50.5-50.5M19.75 100.25l50.5-50.5M9.75 100.25l50.5-50.5M4.75 100.25l50.5-50.5M14.75 100.25l50.5-50.5M24.75 100.25l50.5-50.5M34.75 100.25l50.5-50.5M44.75 100.25l50.5-50.5M-.25 100.25l50.5-50.5M9.75 100.25l50.5-50.5M19.75 100.25l50.5-50.5M29.75 100.25l50.5-50.5M39.75 100.25l50.5-50.5M-10.25 100.25l50.5-50.5M-20.25 100.25l50.5-50.5M-30.25 100.25l50.5-50.5M-40.25 100.25l50.5-50.5M-45.25 100.25l50.5-50.5M-35.25 100.25l50.5-50.5M-25.25 100.25l50.5-50.5M-15.25 100.25l50.5-50.5M-5.25 100.25l50.5-50.5M4.75 100.25l50.5-50.5M14.75 100.25l50.5-50.5M24.75 100.25l50.5-50.5M34.75 100.25l50.5-50.5M44.75 100.25l50.5-50.5M-50.25 100.25l50.5-50.5M-40.25 100.25l50.5-50.5M-30.25 100.25l50.5-50.5M-20.25 100.25l50.5-50.5M-10.25 100.25l50.5-50.5M-45.25 100.25l50.5-50.5M-35.25 100.25l50.5-50.5M-25.25 100.25l50.5-50.5M-15.25 100.25l50.5-50.5M-5.25 100.25l50.5-50.5"/><path fill="#fff" d="M49.75.25h50v50h-50z"/><path fill="none" stroke="#3cb" stroke-miterlimit="10" d="M49.75 50.25l50.5-50.5M39.75 50.25l50.5-50.5M29.75 50.25l50.5-50.5M19.75 50.25l50.5-50.5M9.75 50.25l50.5-50.5M4.75 50.25l50.5-50.5M14.75 50.25l50.5-50.5M24.75 50.25l50.5-50.5M34.75 50.25l50.5-50.5M44.75 50.25l50.5-50.5"/><path fill="#fff" d="M-.25.25h50v50h-50z"/><path fill="none" stroke="#3cb" stroke-miterlimit="10" d="M-.25 50.25l50.5-50.5M9.75 50.25l50.5-50.5M19.75 50.25l50.5-50.5M29.75 50.25l50.5-50.5M39.75 50.25l50.5-50.5M-10.25 50.25l50.5-50.5M-20.25 50.25l50.5-50.5M-30.25 50.25l50.5-50.5M-40.25 50.25l50.5-50.5M-45.25 50.25L5.25-.25M-35.25 50.25l50.5-50.5M-25.25 50.25l50.5-50.5M-15.25 50.25l50.5-50.5M-5.25 50.25l50.5-50.5M4.75 50.25l50.5-50.5M14.75 50.25l50.5-50.5M24.75 50.25l50.5-50.5M34.75 50.25l50.5-50.5M44.75 50.25l50.5-50.5M-50.25 50.25L.25-.25M-40.25 50.25l50.5-50.5M-30.25 50.25l50.5-50.5M-20.25 50.25l50.5-50.5M-10.25 50.25l50.5-50.5M-45.25 50.25L5.25-.25M-35.25 50.25l50.5-50.5M-25.25 50.25l50.5-50.5M-15.25 50.25l50.5-50.5M-5.25 50.25l50.5-50.5"/><path fill="#fff" d="M49.75-49.75h50v50h-50z"/><path fill="none" stroke="#3cb" stroke-miterlimit="10" d="M49.75.25l50.5-50.5M39.75.25l50.5-50.5M29.75.25l50.5-50.5M19.75.25l50.5-50.5M9.75.25l50.5-50.5M4.75.25l50.5-50.5M14.75.25l50.5-50.5M24.75.25l50.5-50.5M34.75.25l50.5-50.5M44.75.25l50.5-50.5"/><path fill="#fff" d="M-.25-49.75h50v50h-50z"/><path fill="none" stroke="#3cb" stroke-miterlimit="10" d="M-.25.25l50.5-50.5M9.75.25l50.5-50.5M19.75.25l50.5-50.5M29.75.25l50.5-50.5M39.75.25l50.5-50.5M-10.25.25l50.5-50.5M-20.25.25l50.5-50.5M-30.25.25l50.5-50.5M-40.25.25l50.5-50.5M-45.25.25l50.5-50.5M-35.25.25l50.5-50.5M-25.25.25l50.5-50.5M-15.25.25l50.5-50.5M-5.25.25l50.5-50.5M4.75.25l50.5-50.5M14.75.25l50.5-50.5M24.75.25l50.5-50.5M34.75.25l50.5-50.5M44.75.25l50.5-50.5M-50.25.25l50.5-50.5M-40.25.25l50.5-50.5M-30.25.25l50.5-50.5M-20.25.25l50.5-50.5M-10.25.25l50.5-50.5M-45.25.25l50.5-50.5M-35.25.25l50.5-50.5M-25.25.25l50.5-50.5M-15.25.25l50.5-50.5M-5.25.25l50.5-50.5"/></pattern><pattern id="intro-bg-h" data-name="Stripes" width="50" height="50" patternTransform="translate(-225 598)" patternUnits="userSpaceOnUse" viewBox="0 0 50 50"><path fill="none" d="M0 0h50v50H0z"/><path fill="none" stroke="#3cb" stroke-miterlimit="10" d="M49.75 100.25l50.5-50.5M39.75 100.25l50.5-50.5M29.75 100.25l50.5-50.5M19.75 100.25l50.5-50.5M9.75 100.25l50.5-50.5M4.75 100.25l50.5-50.5M14.75 100.25l50.5-50.5M24.75 100.25l50.5-50.5M34.75 100.25l50.5-50.5M44.75 100.25l50.5-50.5M-.25 100.25l50.5-50.5M9.75 100.25l50.5-50.5M19.75 100.25l50.5-50.5M29.75 100.25l50.5-50.5M39.75 100.25l50.5-50.5M-10.25 100.25l50.5-50.5M-20.25 100.25l50.5-50.5M-30.25 100.25l50.5-50.5M-40.25 100.25l50.5-50.5M-45.25 100.25l50.5-50.5M-35.25 100.25l50.5-50.5M-25.25 100.25l50.5-50.5M-15.25 100.25l50.5-50.5M-5.25 100.25l50.5-50.5M4.75 100.25l50.5-50.5M14.75 100.25l50.5-50.5M24.75 100.25l50.5-50.5M34.75 100.25l50.5-50.5M44.75 100.25l50.5-50.5M-50.25 100.25l50.5-50.5M-40.25 100.25l50.5-50.5M-30.25 100.25l50.5-50.5M-20.25 100.25l50.5-50.5M-10.25 100.25l50.5-50.5M-45.25 100.25l50.5-50.5M-35.25 100.25l50.5-50.5M-25.25 100.25l50.5-50.5M-15.25 100.25l50.5-50.5M-5.25 100.25l50.5-50.5"/><path fill="#fff" d="M49.75.25h50v50h-50z"/><path fill="none" stroke="#3cb" stroke-miterlimit="10" d="M49.75 50.25l50.5-50.5M39.75 50.25l50.5-50.5M29.75 50.25l50.5-50.5M19.75 50.25l50.5-50.5M9.75 50.25l50.5-50.5M4.75 50.25l50.5-50.5M14.75 50.25l50.5-50.5M24.75 50.25l50.5-50.5M34.75 50.25l50.5-50.5M44.75 50.25l50.5-50.5"/><path fill="#fff" d="M-.25.25h50v50h-50z"/><path fill="none" stroke="#3cb" stroke-miterlimit="10" d="M-.25 50.25l50.5-50.5M9.75 50.25l50.5-50.5M19.75 50.25l50.5-50.5M29.75 50.25l50.5-50.5M39.75 50.25l50.5-50.5M-10.25 50.25l50.5-50.5M-20.25 50.25l50.5-50.5M-30.25 50.25l50.5-50.5M-40.25 50.25l50.5-50.5M-45.25 50.25L5.25-.25M-35.25 50.25l50.5-50.5M-25.25 50.25l50.5-50.5M-15.25 50.25l50.5-50.5M-5.25 50.25l50.5-50.5M4.75 50.25l50.5-50.5M14.75 50.25l50.5-50.5M24.75 50.25l50.5-50.5M34.75 50.25l50.5-50.5M44.75 50.25l50.5-50.5M-50.25 50.25L.25-.25M-40.25 50.25l50.5-50.5M-30.25 50.25l50.5-50.5M-20.25 50.25l50.5-50.5M-10.25 50.25l50.5-50.5M-45.25 50.25L5.25-.25M-35.25 50.25l50.5-50.5M-25.25 50.25l50.5-50.5M-15.25 50.25l50.5-50.5M-5.25 50.25l50.5-50.5"/><path fill="#fff" d="M49.75-49.75h50v50h-50z"/><path fill="none" stroke="#3cb" stroke-miterlimit="10" d="M49.75.25l50.5-50.5M39.75.25l50.5-50.5M29.75.25l50.5-50.5M19.75.25l50.5-50.5M9.75.25l50.5-50.5M4.75.25l50.5-50.5M14.75.25l50.5-50.5M24.75.25l50.5-50.5M34.75.25l50.5-50.5M44.75.25l50.5-50.5"/><path fill="#fff" d="M-.25-49.75h50v50h-50z"/><path fill="none" stroke="#3cb" stroke-miterlimit="10" d="M-.25.25l50.5-50.5M9.75.25l50.5-50.5M19.75.25l50.5-50.5M29.75.25l50.5-50.5M39.75.25l50.5-50.5M-10.25.25l50.5-50.5M-20.25.25l50.5-50.5M-30.25.25l50.5-50.5M-40.25.25l50.5-50.5M-45.25.25l50.5-50.5M-35.25.25l50.5-50.5M-25.25.25l50.5-50.5M-15.25.25l50.5-50.5M-5.25.25l50.5-50.5M4.75.25l50.5-50.5M14.75.25l50.5-50.5M24.75.25l50.5-50.5M34.75.25l50.5-50.5M44.75.25l50.5-50.5M-50.25.25l50.5-50.5M-40.25.25l50.5-50.5M-30.25.25l50.5-50.5M-20.25.25l50.5-50.5M-10.25.25l50.5-50.5M-45.25.25l50.5-50.5M-35.25.25l50.5-50.5M-25.25.25l50.5-50.5M-15.25.25l50.5-50.5M-5.25.25l50.5-50.5"/></pattern></defs><symbol id="icon-logo" viewBox="0 0 249.23 60"><title>Artboard 1</title><g data-name="p" fill="#2d3859"><path d="M19.89 0H0v51.63h6.38v-6.37h6.37v-6.38h7.14c10.7 0 23.36-5.17 23.36-19.53C43.25 5.17 30.5 0 19.89 0zm-2.06 28.09h-5.08v-17.3h6.78c6.06 0 10.16 3.3 10.16 8.83 0 6.24-5.08 8.47-11.86 8.47z"/><path opacity=".75" d="M6.38 51.63h4.78v4.78H6.38z"/><path opacity=".5" d="M2.79 56.41h3.59V60H2.79z"/></g><path d="M67.77 8.49c4 0 8.91 2 8.91 7.38s-4.83 7.44-8.91 7.44h-2.72v9h-4.86V8.49zM65.05 19.2H67c2.58 0 4.52-.85 4.52-3.23 0-2.11-1.56-3.37-3.87-3.37h-2.6zM92 32.29l-.37-2.45a6.75 6.75 0 0 1-5.54 2.85 6 6 0 0 1-4.76-2.34c-1.39-1.8-1.6-4.11-1.6-6.66V14.4h4.83v9a9.25 9.25 0 0 0 .54 3.84 2.47 2.47 0 0 0 2.38 1.26 4.68 4.68 0 0 0 3.88-2.28V14.4h4.84v17.89zM110.61 19.27a5.44 5.44 0 0 0-3.53-1.5c-.92 0-1.74.51-1.74 1.36 0 1.12 1.33 1.7 2.83 2.31 2.31.95 5.23 2.11 5.23 5.51 0 3.94-3.4 5.74-6.87 5.74a9.94 9.94 0 0 1-7.2-3.06l2.75-2.85c1.36 1.32 2.48 2.11 4.22 2.11 1 0 2.27-.48 2.27-1.57 0-1.25-1.63-1.8-3.4-2.58-2.14-.92-4.48-2.14-4.48-5.27 0-3.64 3.12-5.47 6.39-5.47a8.81 8.81 0 0 1 6.18 2.34zM122.07 16.51a6.85 6.85 0 0 1 5.27-2.51 6 6 0 0 1 4.76 2.34c1.39 1.8 1.6 4.12 1.6 6.67v9.28h-4.83v-9a9.25 9.25 0 0 0-.54-3.84 2.48 2.48 0 0 0-2.33-1.31 4.67 4.67 0 0 0-3.88 2.28v11.87h-4.83V6.79h4.83zM151.79 18.42v6.93a12.79 12.79 0 0 0 .06 1.53c.14 1.05.55 1.7 1.57 1.7a4.09 4.09 0 0 0 1.94-.51l1.49 3.57a9 9 0 0 1-4.25 1 5.15 5.15 0 0 1-5.3-3.84 10.54 10.54 0 0 1-.34-3v-7.38h-2.14v-4H147l.75-3.94h4.08v3.92h4.55v4zM177.11 23.35a9.37 9.37 0 0 1-18.73 0 9.37 9.37 0 0 1 18.73 0zm-9.34-5.21c-2.66 0-4.46 2.28-4.46 5.21s1.8 5.2 4.46 5.2 4.42-2.28 4.42-5.2-1.77-5.21-4.42-5.21zM189.39 8.49h6.94c6.15 0 13 3.19 13 11.8 0 8.8-6.83 12-13.36 12h-6.63zm4.86 19.68h.55c5.57 0 9.38-2 9.38-7.58 0-5.23-3.09-8-8.43-8h-1.5zM217.07 24.54c.34 2.44 1.93 4.28 4.48 4.28a5.05 5.05 0 0 0 4.66-2.65l3.16 2.14a8.91 8.91 0 0 1-8.16 4.38c-5.4 0-9-3.77-9-9.14s3.9-9.55 9.04-9.55c5 0 8.63 3.5 8.63 8.26a12.7 12.7 0 0 1-.24 2.28zm7.88-3.3a3.44 3.44 0 0 0-3.57-3.47c-2.31 0-3.57 1.46-4.08 3.47zM249.23 14.4l-7.34 17.89h-3.95l-6.73-17.89h5.34l3.6 11h.07l3.64-11z" fill="#fff"/><path fill="#2d3859" d="M60.19 45.26h175.29v6.38H60.19zM235.48 48.44h3.19v3.19h-3.19zM238.67 45.26h3.19v3.19h-3.19zM241.86 48.44h3.19v3.19h-3.19z"/><path fill="#2d3859" opacity=".75" d="M245.05 46.05h2.39v2.39h-2.39z"/><path fill="#2d3859" opacity=".5" d="M247.44 48.44h1.79v1.79h-1.79z"/></symbol><symbol id="intro-bg" viewBox="0 0 550 300"><title>intro-bg</title><path fill="#f7f7f8" d="M500 50h50v50h-50zM400 100h150v150H400zM350 150h50v50h-50zM300 200h50v50h-50zM250 200h50v50h-50zM200 250h350v50H200zM350 200h50v50h-50z"/><path fill="url(#intro-bg-a)" d="M400 200h50v50h-50z"/><path fill="url(#intro-bg-b)" d="M450 200h50v50h-50z"/><path fill="url(#intro-bg-c)" d="M400 100h50v50h-50z"/><path fill="url(#intro-bg-d)" d="M200 150h50v50h-50z"/><path stroke="#3cb" stroke-miterlimit="10" fill="url(#intro-bg-e)" d="M250 250h50v50h-50z"/><path fill="none" stroke="#3cb" stroke-miterlimit="10" opacity=".15" d="M238.89 250H550M277.78 200H550M200 300h350M355.56 150H550M433.33 100H550"/><path fill="none" stroke="#e12479" stroke-miterlimit="10" opacity=".15" d="M472.22 50H550M250 250v50"/><path stroke="#3cb" stroke-miterlimit="10" opacity=".15" fill="url(#intro-bg-e)" d="M300 200v100"/><path fill="none" stroke="#3cb" stroke-miterlimit="10" opacity=".15" d="M350 150v150M400 150v150M450 100v200M500 150v100"/><path fill="none" stroke="#fff" stroke-miterlimit="10" opacity=".5" d="M250 250H150M300 200H50M400 150V50"/><path fill="url(#intro-bg-f)" d="M450 0h50v50h-50z"/><path fill="url(#intro-bg-d)" d="M100 200h50v50h-50z"/><path fill="url(#intro-bg-g)" d="M50 250h50v50H50z"/><path fill="url(#intro-bg-h)" d="M0 250h50v50H0z"/><path fill="#f7f7f8" d="M300 100h50v50h-50z"/><path stroke="#3cb" stroke-miterlimit="10" fill="url(#intro-bg-e)" d="M300 150h50v50h-50z"/><path fill="none" stroke="#3cb" stroke-miterlimit="10" stroke-width="2" d="M300 255v-10M295 250h10M300 305v-10M295 300h10M250 305v-10M245 300h10M350 205v-10M345 200h10M450 155v-10M445 150h10M400 205v-10M395 200h10M400 255v-10M395 250h10M500 205v-10M495 200h10M500 255v-10M495 250h10"/><path fill="none" stroke="#3cb" stroke-miterlimit="10" d="M400 200h100M400 250h100M400 200v50M500 200v50M400 150h50M450 100v50"/></symbol></svg>